inDegrees=no
num_controls=7
num_derivatives=13
num_iterations=45
num_multipliers=7
num_parameters=0
num_slacks=7
num_states=26
objective=0.398613
objective_accelerations=0.061471
objective_balance=0.002971
objective_effort=0.028484
objective_height=0.299851
objective_ligament=0.005836
solver_duration=679.006321
status=Solve_Succeeded
success=true
DataType=double
version=3
OpenSimVersion=4.5
endheader
time	/jointset/ground_pelvis/pelvis_tilt/value	/jointset/ground_pelvis/pelvis_tx/value	/jointset/ground_pelvis/pelvis_ty/value	/jointset/hip_l/hip_flexion_l/value	/jointset/hip_l/hip_adduction_l/value	/jointset/hip_l/hip_rotation_l/value	/jointset/back/lumbar_extension/value	/jointset/patellofemoral_l/patellar_flexion_l/value	/jointset/knee_l/knee_flexion_l/value	/jointset/knee_l/knee_adduction_l/value	/jointset/knee_l/knee_rotation_l/value	/jointset/ankle_l/ankle_angle_l/value	/jointset/subtalar_l/subtalar_angle_l/value	/jointset/ground_pelvis/pelvis_tilt/speed	/jointset/ground_pelvis/pelvis_tx/speed	/jointset/ground_pelvis/pelvis_ty/speed	/jointset/hip_l/hip_flexion_l/speed	/jointset/hip_l/hip_adduction_l/speed	/jointset/hip_l/hip_rotation_l/speed	/jointset/back/lumbar_extension/speed	/jointset/patellofemoral_l/patellar_flexion_l/speed	/jointset/knee_l/knee_flexion_l/speed	/jointset/knee_l/knee_adduction_l/speed	/jointset/knee_l/knee_rotation_l/speed	/jointset/ankle_l/ankle_angle_l/speed	/jointset/subtalar_l/subtalar_angle_l/speed	/forceset/tau_hip_flexion_l	/forceset/tau_hip_adduction_l	/forceset/tau_hip_rotation_l	/forceset/tau_knee_flexion_l	/forceset/tau_ankle_angle_l	/forceset/tau_subtalar_angle_l	/forceset/tau_lumbar_extension	lambda_cid13_p0	lambda_cid13_p1	lambda_cid13_p2	lambda_cid13_p3	lambda_cid13_p4	lambda_cid13_p5	lambda_cid14_p0	/jointset/ground_pelvis/pelvis_tilt/accel	/jointset/ground_pelvis/pelvis_tx/accel	/jointset/ground_pelvis/pelvis_ty/accel	/jointset/hip_l/hip_flexion_l/accel	/jointset/hip_l/hip_adduction_l/accel	/jointset/hip_l/hip_rotation_l/accel	/jointset/back/lumbar_extension/accel	/jointset/patellofemoral_l/patellar_flexion_l/accel	/jointset/knee_l/knee_flexion_l/accel	/jointset/knee_l/knee_adduction_l/accel	/jointset/knee_l/knee_rotation_l/accel	/jointset/ankle_l/ankle_angle_l/accel	/jointset/subtalar_l/subtalar_angle_l/accel	gamma_cid13_p0	gamma_cid13_p1	gamma_cid13_p2	gamma_cid13_p3	gamma_cid13_p4	gamma_cid13_p5	gamma_cid14_p0
1	-0.3158498077356168	-0.008960517095074885	0.3667157839275297	2.181656760058151	-0.4784962047181396	0.1449380297384545	-0.2616633885204698	2.079244464981414	2.07924446498177	0.1744675542761075	-0.1742414104021642	0.436227393463518	0.123987718779544	-0.03391102957594146	-0.0005276956485770903	0.004443574075451898	0.01132152004977411	0.002123923808254023	-0.001276918169949263	-7.708651375763387e-05	-0.01888015172729643	-0.01888015172729799	-0.007684156769151943	0.003741609715502622	0.0009527830818233595	0.004494251007657049	-0.1911264882586754	-0.04267436555564003	-0.06085570895387509	-0.4765324254803436	0.02861157226797596	0.02627106646073508	0.1901080529616351	-32.05438905450079	-0.4888784816603105	-6.321165715009795	17.34768846212888	-657.7828073394314	-59.18320279349599	-0.01913202307681157	-1.273318315851935	-0.6828816713686221	2.429094709926732	-6.235833464509071	-0.3384176307342909	-3.783523328354476	0.06775824063945507	-6.605704934846893	-6.60570493484703	-0.5645308854945872	0.1681045978896916	-0.1485987748478014	-0.6290699387240916	2.140608804262329e-09	3.547503149211177e-08	3.840327175136099e-08	1.211971576343907e-09	-3.852518924105127e-09	3.08184807510715e-07	-2.669026996202592e-08
1.01	-0.3162519076160138	-0.008999712066234917	0.3668820689625585	2.181455671827401	-0.4784908307093938	0.1447403840441083	-0.2616607430228736	2.078724925094987	2.078724925095218	0.174359348815713	-0.1741944730328557	0.436230967476052	0.1240042131207324	-0.04644568976354477	-0.007285149797845383	0.02884939764246914	-0.05171943283832339	-0.001069230993195758	-0.03806477537502549	0.0006191479528138255	-0.08507894152830164	-0.08507894152830028	-0.01415762036028583	0.005548243410446577	-0.0001665663525263186	-0.001171255671361459	-0.19213684720297	-0.04273062706264316	-0.06075703331426682	-0.4767710548087814	0.02856447950470728	0.02630899446105374	0.1910266036343353	-32.11518264338046	-0.4969314821750251	-6.317340356078152	17.02491751160263	-658.7936174017809	-59.17673031447845	-0.01912997438011938	-1.234053599227784	-0.6682474681882314	2.451717910687358	-6.365269036722307	-0.3127765039813343	-3.598315018097381	0.07250033664331085	-6.634627801431065	-6.634627801431455	-0.7188748844281415	0.1723040842649876	-0.08289579724161644	-0.5316706288823934	-2.304261221819586e-08	9.853289100205776e-09	-1.831490561440066e-08	3.713707835764188e-08	-1.477476343530564e-08	2.485572379078006e-07	-2.797569057269794e-08
1.02	-0.3167774568440757	-0.009105695615188069	0.3672934905793989	2.180618765500507	-0.4785179906684756	0.1441804801573891	-0.2616507463231446	2.077541864950808	2.077541864950919	0.1741803845611223	-0.1741323970607349	0.4362254894402224	0.1239647764758517	-0.05860089911128608	-0.01388541120720049	0.05347089043663062	-0.1158420991568063	-0.004382869759890523	-0.07372855664062232	0.001393153898881627	-0.151584203277374	-0.1515842032773694	-0.02183591549154945	0.006769330264111688	-0.0008576265673725975	-0.006691946206042453	-0.1931472061471483	-0.0427868885696568	-0.06065835767533023	-0.4770096841370794	0.0285173867414452	0.02634692246137521	0.1919451543070431	-32.17470237836542	-0.5020153809290938	-6.317633676392538	16.75058975915839	-659.7699186000978	-59.11803285420822	-0.01917172493003782	-1.197428147879095	-0.6514431233857486	2.472228555355922	-6.452176150588128	-0.3625144237835482	-3.558708140458631	0.08331253653867142	-6.66699932446066	-6.666999324460733	-0.805497193520767	0.05099522963379277	-0.06294093094602919	-0.6001067098561244	-3.141543782412169e-08	-5.063131990888838e-08	-1.081351590073474e-07	1.751064700877185e-08	-4.058843206155453e-08	-7.588614135231653e-08	-5.146450616601925e-09
1.03	-0.3174222810039432	-0.00927686434022771	0.3679523376796642	2.179134870653137	-0.4785787344850946	0.1432724605528403	-0.2616331595830153	2.075691787982247	2.075691787982256	0.1739158815430007	-0.1740622543994415	0.4362148558651986	0.1238707252070141	-0.07025435316408871	-0.02031829976872854	0.07834854417294829	-0.181165586377585	-0.007760344965070679	-0.1075694775601211	0.00207469576315563	-0.2185178272969997	-0.2185178272969897	-0.0313682288963022	0.007135214295370403	-0.001229678050579169	-0.01208065768618269	-0.1941931354967542	-0.04256839872642814	-0.06047589271158568	-0.4777008646413719	0.02883886890306375	0.02638001163541496	0.1928812200249387	-32.13208009404094	-0.5174858385400927	-6.322435534442502	16.36423655202962	-661.0286821038294	-59.09006129827157	-0.01923972778970657	-1.132866476580108	-0.6347072763542474	2.50302249891658	-6.606742926967425	-0.3245021890371955	-3.25090953209769	0.05315025676890896	-6.719543197095681	-6.719543197095679	-1.072616248975597	0.01073127626374569	-0.01843864616968916	-0.5025627666718956	-3.961672878293995e-08	-1.114716724548928e-07	-1.982931886862861e-07	-2.682636769998181e-09	-6.655405399509993e-08	-4.030317227517944e-07	1.792885730446125e-08
